<svg version="1" xmlns="http://www.w3.org/2000/svg" width="933.333" height="933.333" viewBox="0 0 700.000000 700.000000"><path d="M11 .7C7.5 2 3.8 5.4 2 9c-2 3.9-2 7.2-2 341.1 0 310.4.1 337.4 1.6 340.6.9 1.9 3.3 4.6 5.2 6.1l3.5 2.7h679.2l3.3-2.3c1.8-1.3 4.1-4.1 5.2-6.2 2-3.9 2-7.2 2-341s0-337.1-2-341c-1.1-2.1-3.4-4.9-5.2-6.2L689.5.5 351 .3C164.8.2 11.8.4 11 .7zM133 44c2.9 1.7 5.3 4.1 7 7l2.5 4.5.5 100.9.5 100.8 23.5-28.8c12.9-15.9 49-60.6 80.3-99.4 31.3-38.8 59-72.7 61.6-75.3 2.5-2.7 6.6-6.1 9.1-7.5l4.5-2.7 52.9-.3c43-.2 52.7 0 51.9 1-.6.7-33.6 41.6-73.5 90.8C314 184.2 270 238.7 256 256c-14 17.3-34.1 42-44.7 54.8-10.6 12.8-20 24.7-21 26.5-2.3 4.5-2.2 12.3.4 17.2 1.2 2.2 12.6 16.8 25.4 32.5 57.8 70.7 179.1 221 198.1 245.4l11.8 15.1-53.1.3c-51.8.2-53.2.2-56.4-1.8-1.8-1.1-4.6-3.7-6.1-5.8-2.4-3.1-128.6-159.1-157.4-194.4l-9.5-11.7-.3 106.5-.2 106.5-34.8-.3c-29.7-.3-35.2-.6-38.2-2-4.6-2.1-8.9-6.4-10.9-10.8-1.5-3.2-1.6-29.8-1.9-298.3L57 40.9l35.7.3 35.8.3L133 44zm391 30.5c3.6 2 11.4 7.2 17.3 11.6 51.3 38.5 76.7 89.1 76.7 152.7-.1 90.7-43.5 152.5-127.7 181.6-22.6 7.7-24.8 9.7-20.2 17.5 1.3 2.2 37.3 45.5 80 96.3 42.6 50.8 81.1 96.8 85.4 102.3l7.8 10-53.8.3c-45.5.2-54.2 0-56-1.2-2.1-1.4-247.5-295-247.5-296.1 0-.3 31.3-.5 69.5-.5 43 0 73.3-.4 79.2-1.1 47.8-5.3 83.6-34.5 95-77.4 2.3-8.7 2.6-12 2.7-25.5 0-13.6-.3-16.8-2.6-26-3.6-14-7.6-23.5-14.5-33.9-10.8-16.3-24.6-28-44.5-37.8-20.6-10.1-20.6-10.4-1.9-33.6 5.3-6.7 13.9-17.7 18.9-24.4 12.3-16.3 17-19.8 25.6-18.7 2.2.3 6.9 2 10.6 3.9z"/></svg>