<svg class="logo" version="1.1" width="100%" height="100%" viewBox="0 0 484.07999 484.07999"
     xmlns="http://www.w3.org/2000/svg" style="display: block;" preserveAspectRatio="xMidYMid meet">
<g id="Layer_2">
	<path id="XMLID_1_" fill="#FF4136" d="M12,0h460.07999c6.60001,0,12,5.4,12,12v460.07999c0,6.60001-5.39999,12-12,12H12
		c-6.6,0-12-5.39999-12-12V12C0,5.4,5.4,0,12,0z"/>
</g>
<g id="Layer_1">
	<g id="XMLID_2_">
		<path id="XMLID_25_" fill="#F1FFEB" d="M201.4772,242.4743c-2.69174-0.01764-2.69174-0.30931-1.31671,1.39902
			c53.5858,64.30902,110.61182,132.76849,164.27579,197.01227c2.85132,3.41345,5.13336,8.23511,10.27637,8.28149
			c23.10345,0.20883,46.20981,0.09668,72.31012,0.09314c0.49442-0.00006,0.77231-0.57959,0.46774-0.96906
			c-5.3989-6.90485-8.57446-11.17813-11.99106-15.24911c-33.31332-39.69415-66.68832-79.33655-100.00916-119.02435
			c-12.87582-15.33612-12.77545-15.19754,5.85724-21.40988c53.13354-17.71509,83.19839-55.28699,88.3009-110.24289
			c5.01895-54.05518-15.08191-97.94997-61.91281-128.16414c-10.66528-6.881-17.20819-6.00354-25.1319,4.8149
			c-6.38107,8.71224-12.8754,17.32841-19.84695,25.63869c-6.99518,8.33847-9.26111,12.8762,1.48065,17.2273
			c19.90433,8.06257,35.93011,23.82774,42.51627,44.26814c15.62775,48.5013-16.30338,93.86325-69.47998,96.08777
			C265.16034,242.03999,234.78072,242.4743,201.4772,242.4743z"/>
		<path id="XMLID_24_" fill="#F1FFEB" d="M299.3595,30.75507c-24.84647,0-45.22044,0.36395-65.57111-0.16808
			c-8.91335-0.23303-14.69789,3.07681-20.17461,9.88511C162.61516,103.87148,111.45324,167.14095,59.9926,230.16547
			c-5.98887,7.33466-7.30446,12.06926-0.65886,20.17465c51.94834,63.35938,103.35922,127.15936,154.95149,190.81067
			c3.18704,3.93185,5.89365,8.82996,11.81544,8.8591c22.9942,0.11337,45.9892,0.04617,71.89954,0.04617
			c-6.07919-7.86823-9.77164-12.83313-13.65442-17.64441c-48.59729-60.21829-97.03185-120.57016-146.04945-180.44461
			c-7.18416-8.77525-7.23448-14.28741,0.0827-22.87535c20.65877-24.24654,40.3416-49.32494,60.39442-74.08737
			C231.31898,114.81496,263.85281,74.61613,299.3595,30.75507z"/>
		<g id="XMLID_4_">
			<path id="XMLID_57_" fill="#F1FFEB" d="M41.626,29.29251c0,0,3.37499,0,7.49998,0s10.87497,0,14.99997,0
				c4.12498,0,10.87497,0,14.99996,0c4.12498,0,10.87497,0,14.99996,0s7.49998,7.2,7.49998,16v72.99974c0,8.8,0,23.2,0,32v72.99974
				c0,8.8,0,23.2,0,32v72.99976c0,8.79999,0,23.19998,0,32v88.99973"/>
		</g>
		<g id="XMLID_3_">
			<path id="XMLID_58_" fill="#F1FFEB" d="M101.62585,449.29147c0,0-6.74998,0-14.99996,0s-21.74995,0-29.99992,0
				s-14.99996-7.20001-14.99996-16V255.29199c0-8.8,0-23.2,0-32V29.29251"/>
		</g>
	</g>
</g>
</svg>