<svg xmlns="http://www.w3.org/2000/svg" viewBox="0 0 612.1 612.1"><defs><style>.a{fill:#ff4136;}.b{fill:#f1ffeb;}</style></defs><title>logo</title><path class="a" d="M18.2,91.8H599.9A15.26,15.26,0,0,1,615.1,107V688.7a15.26,15.26,0,0,1-15.2,15.2H18.2A15.26,15.26,0,0,1,3,688.7V107A15.32,15.32,0,0,1,18.2,91.8Z" transform="translate(-3 -91.8)"/><path class="b" d="M254.7,396.5c-3.4,0-3.4-.4-1.7,1.8,67.7,81.3,139.8,167.9,207.7,249.1,3.6,4.3,6.5,10.4,13,10.5,29.2.3,58.4.1,91.4.1a.75.75,0,0,0,.6-1.2c-6.8-8.7-10.8-14.1-15.2-19.3Q487.35,562.2,424.1,487c-16.3-19.4-16.2-19.2,7.4-27.1,67.2-22.4,105.2-69.9,111.6-139.4,6.3-68.3-19.1-123.8-78.3-162-13.5-8.7-21.8-7.6-31.8,6.1-8.1,11-16.3,21.9-25.1,32.4s-11.7,16.3,1.9,21.8c25.2,10.2,45.4,30.1,53.8,56,19.8,61.3-20.6,118.7-87.8,121.5C335.2,396,296.8,396.5,254.7,396.5Z" transform="translate(-3 -91.8)"/><path class="b" d="M378.5,128.9c-31.4,0-57.2.5-82.9-.2-11.3-.3-18.6,3.9-25.5,12.5Q173.35,261.35,75.8,381c-7.6,9.3-9.2,15.3-.8,25.5,65.7,80.1,130.7,160.8,195.9,241.2,4,5,7.5,11.2,14.9,11.2,29.1.1,58.1.1,90.9.1-7.7-9.9-12.4-16.2-17.3-22.3C298,560.5,236.8,484.2,174.8,408.6c-9.1-11.1-9.1-18.1.1-28.9,26.1-30.7,51-62.4,76.4-93.7C292.4,235.2,333.6,184.3,378.5,128.9Z" transform="translate(-3 -91.8)"/><path class="b" d="M52.6,127V637.7C54.2,659,70.2,658,85,658h43.5c.3-46.6,0-93.2,0-139.8,0-122.6.1-144.9.1-267.5V151.3c0-20.5-8.3-24.4-26.5-24.2C81,127,72,127,52.6,127Z" transform="translate(-3 -91.8)"/></svg>